<svg width="111" height="29" viewBox="0 0 111 29" fill="none" xmlns="http://www.w3.org/2000/svg">
<path d="M8.87856 28.4998C6.72183 28.4998 4.84666 27.984 3.25308 26.9524C1.65949 25.9207 0.57513 24.531 0 22.7833L3.95402 20.8899C4.45725 21.958 5.14022 22.7955 6.00291 23.4023C6.86561 24.0092 7.82416 24.3126 8.87856 24.3126C9.6454 24.3126 10.2325 24.1548 10.6399 23.8392C11.0473 23.5237 11.251 23.0867 11.251 22.5284C11.251 22.2372 11.1791 21.9883 11.0353 21.782C10.8915 21.5757 10.6758 21.3876 10.3883 21.2176C10.1007 21.0477 9.74126 20.9021 9.30991 20.7807L5.96697 19.834C4.3614 19.3728 3.12727 18.6264 2.26457 17.5948C1.40188 16.5631 0.970531 15.3434 0.970531 13.9355C0.970531 12.6975 1.28206 11.6173 1.90512 10.6949C2.52817 9.77248 3.40285 9.05033 4.52914 8.52844C5.65544 8.00655 6.94948 7.74561 8.41127 7.74561C10.3284 7.74561 12.0118 8.20074 13.4616 9.11102C14.9114 10.0213 15.9359 11.3017 16.535 12.9524L12.545 14.8457C12.2574 14.0204 11.7362 13.359 10.9814 12.8613C10.2265 12.3637 9.36982 12.1149 8.41127 12.1149C7.71632 12.1149 7.17115 12.2606 6.77574 12.5518C6.38034 12.8431 6.18264 13.2437 6.18264 13.7534C6.18264 14.0204 6.25453 14.2632 6.39832 14.4816C6.5421 14.7001 6.77574 14.8943 7.09926 15.0642C7.42277 15.2341 7.82416 15.3919 8.30343 15.5375L11.4307 16.4842C13.0602 16.9697 14.3063 17.704 15.169 18.6871C16.0317 19.6702 16.4631 20.8778 16.4631 22.31C16.4631 23.5479 16.1456 24.6281 15.5105 25.5505C14.8755 26.473 13.9948 27.1951 12.8685 27.717C11.7422 28.2389 10.4122 28.4998 8.87856 28.4998Z" fill="white"/>
<path d="M19.6982 28.0631V0.5H25.0901V18.1593L23.0771 17.5039L31.74 8.1827H38.39L31.2727 16.1931L38.354 28.0631H32.2433L26.3122 17.9772L29.4395 17.1762L23.4366 23.803L25.0901 20.6352V28.0631H19.6982Z" fill="white"/>
<path fill-rule="evenodd" clip-rule="evenodd" d="M40.7622 0.936523V6.39816H46.154V0.936523H40.7622ZM40.7622 8.18241V28.0628H46.154V8.18241H40.7622Z" fill="white"/>
<path d="M50.1084 28.0631V0.5H55.5002V28.0631H50.1084Z" fill="white"/>
<path d="M59.4541 28.0631V0.5H64.8459V28.0631H59.4541Z" fill="white"/>
<path d="M78.2538 28.5003C76.1689 28.5003 74.3597 28.033 72.826 27.0985C71.2923 26.164 70.1061 24.9078 69.2674 23.33C68.4286 21.7522 68.0093 20.0044 68.0093 18.0868C68.0093 16.0963 68.4466 14.3243 69.3213 12.7708C70.196 11.2173 71.3762 9.99143 72.8619 9.0933C74.3477 8.19516 76.0251 7.74609 77.8943 7.74609C79.452 7.74609 80.8299 7.9949 82.0281 8.49252C83.2262 8.99013 84.2387 9.68801 85.0655 10.5861C85.8922 11.4843 86.5213 12.522 86.9526 13.6993C87.384 14.8766 87.5996 16.157 87.5996 17.5406C87.5996 17.929 87.5817 18.3113 87.5457 18.6876C87.5098 19.0638 87.4439 19.3855 87.348 19.6525H72.6463V15.6473H84.2926L81.7405 17.5406C81.9801 16.4969 81.9682 15.5684 81.7045 14.7552C81.4409 13.942 80.9796 13.2988 80.3206 12.8254C79.6616 12.3521 78.8529 12.1154 77.8943 12.1154C76.9597 12.1154 76.1569 12.346 75.486 12.8072C74.815 13.2684 74.3117 13.9481 73.9762 14.8462C73.6408 15.7444 73.509 16.8367 73.5808 18.1232C73.485 19.2398 73.6168 20.2229 73.9762 21.0725C74.3357 21.9221 74.8869 22.5835 75.6297 23.0569C76.3726 23.5302 77.2713 23.7669 78.3257 23.7669C79.2842 23.7669 80.105 23.5727 80.7879 23.1843C81.4709 22.7959 82.0041 22.2619 82.3875 21.5822L86.701 23.6577C86.3176 24.6286 85.7125 25.4782 84.8857 26.2064C84.059 26.9347 83.0825 27.499 81.9562 27.8995C80.8299 28.3001 79.5957 28.5003 78.2538 28.5003Z" fill="white"/>
<path fill-rule="evenodd" clip-rule="evenodd" d="M94.8603 27.1164C96.37 28.0388 98.0834 28.5 100.001 28.5C101.342 28.5 102.589 28.2512 103.739 27.7536C104.623 27.3709 105.366 26.8482 105.967 26.1856V28.0631H111V0.5H105.608V9.85192C105.094 9.33528 104.489 8.90631 103.793 8.56502C102.678 8.01886 101.402 7.74577 99.9646 7.74577C98.0954 7.74577 96.4059 8.20698 94.8962 9.12939C93.3865 10.0518 92.1883 11.2958 91.3017 12.8615C90.415 14.4272 89.9717 16.181 89.9717 18.1229C89.9717 20.0405 90.409 21.7883 91.2837 23.3661C92.1584 24.9439 93.3506 26.194 94.8603 27.1164ZM103.236 22.8926C102.493 23.3538 101.63 23.5844 100.648 23.5844C99.6651 23.5844 98.7845 23.3538 98.0057 22.8926C97.2268 22.4314 96.6218 21.7881 96.1904 20.9628C95.7591 20.1375 95.5434 19.1908 95.5434 18.1228C95.5434 17.0547 95.7591 16.1141 96.1904 15.3009C96.6218 14.4877 97.2268 13.8445 98.0057 13.3711C98.7845 12.8978 99.6651 12.6611 100.648 12.6611C101.63 12.6611 102.493 12.8917 103.236 13.3529C103.979 13.8141 104.56 14.4574 104.979 15.2827C105.398 16.108 105.608 17.0547 105.608 18.1228C105.608 19.1908 105.398 20.1375 104.979 20.9628C104.56 21.7881 103.979 22.4314 103.236 22.8926Z" fill="white"/>
</svg>
